<svg xmlns="http://www.w3.org/2000/svg" viewBox="0 0 64 64" width="64" height="64">
  <defs>
    <linearGradient id="rocketGradient" x1="0%" y1="0%" x2="100%" y2="100%">
      <stop offset="0%" style="stop-color:#667eea;stop-opacity:1" />
      <stop offset="100%" style="stop-color:#764ba2;stop-opacity:1" />
    </linearGradient>
    <linearGradient id="fireGradient" x1="0%" y1="0%" x2="100%" y2="100%">
      <stop offset="0%" style="stop-color:#ff6b6b;stop-opacity:1" />
      <stop offset="50%" style="stop-color:#ffa500;stop-opacity:1" />
      <stop offset="100%" style="stop-color:#ffeb3b;stop-opacity:1" />
    </linearGradient>
  </defs>
  
  <!-- Background circle -->
  <circle cx="32" cy="32" r="30" fill="url(#rocketGradient)" stroke="#fff" stroke-width="2"/>
  
  <!-- Rocket body -->
  <ellipse cx="32" cy="28" rx="6" ry="16" fill="#f5f5f5"/>
  
  <!-- Rocket nose -->
  <path d="M32,12 L38,20 L26,20 Z" fill="#4CAF50"/>
  
  <!-- Rocket fins -->
  <path d="M26,36 L24,44 L26,44 Z" fill="#2196F3"/>
  <path d="M38,36 L40,44 L38,44 Z" fill="#2196F3"/>
  
  <!-- Rocket window -->
  <circle cx="32" cy="24" r="3" fill="#2196F3" opacity="0.8"/>
  
  <!-- Fire/exhaust -->
  <path d="M32,44 L28,52 L32,50 L36,52 Z" fill="url(#fireGradient)"/>
  <path d="M32,50 L30,56 L32,54 L34,56 Z" fill="#ff6b6b" opacity="0.8"/>
  
  <!-- Stars -->
  <circle cx="18" cy="18" r="1" fill="#fff"/>
  <circle cx="46" cy="20" r="1" fill="#fff"/>
  <circle cx="20" cy="46" r="1" fill="#fff"/>
  <circle cx="44" cy="44" r="1" fill="#fff"/>
  
  <!-- KRYONIX text (small) -->
  <text x="32" y="58" text-anchor="middle" font-family="Arial, sans-serif" font-size="6" font-weight="bold" fill="#fff">KRYONIX</text>
</svg>
